<svg width="11" height="11" viewBox="0 0 11 11" fill="none" xmlns="http://www.w3.org/2000/svg">
<path fill-rule="evenodd" clip-rule="evenodd" d="M1.88771 10.3126C2.45935 10.4503 3.34541 10.6144 4.32031 10.6144C6.06806 10.6144 7.41019 10.1271 8.30921 9.16618C9.65187 7.73116 9.7271 5.6066 9.60655 3.85048L10.3506 3.2521C10.4822 3.14627 10.5466 2.97904 10.5197 2.81352C10.4928 2.64803 10.3784 2.50924 10.2198 2.44955L9.1669 2.0531C8.82539 1.41087 8.30705 0.995265 7.658 0.846191C7.44565 0.797429 7.2348 0.772705 7.03142 0.772705C6.34266 0.772705 5.71531 1.06038 5.26502 1.58263C4.77867 2.14676 4.54043 2.92956 4.63504 3.64112C3.85071 3.62647 2.45866 3.44707 1.21178 2.49767C1.08283 2.39943 0.929197 2.34756 0.767483 2.34756C0.418484 2.34756 0.115034 2.59351 0.0459362 2.93247C-0.032257 3.31579 -0.0916793 4.15107 0.585688 4.95294C0.546155 4.9881 0.510216 5.02769 0.478719 5.07124C0.341433 5.26145 0.305625 5.50733 0.382838 5.7291C0.522379 6.12932 0.840246 6.72761 1.5444 7.08582C1.4649 7.31941 1.5115 7.57988 1.66903 7.77217C1.98663 8.15968 2.40072 8.43463 2.87527 8.58065C2.50409 8.74805 1.90567 8.94033 0.945421 9.10579C0.704562 9.14727 0.534936 9.36272 0.553444 9.60363C0.577929 9.92337 0.81447 9.99936 1.14187 10.1045L1.14223 10.1047C1.30361 10.1565 1.56399 10.2347 1.88771 10.3126ZM4.32037 9.67584C3.83122 9.67584 3.36359 9.6301 2.94607 9.5651C3.33824 9.41879 3.65344 9.2547 3.88946 9.07341C4.40738 8.67561 4.41689 8.29092 4.40744 8.18249C4.38496 7.92497 4.15557 7.73399 3.89526 7.75503C3.8302 7.76035 3.76544 7.76301 3.70301 7.76301C3.237 7.76301 2.90158 7.61309 2.66685 7.43304C2.82094 7.38193 2.91396 7.332 2.93938 7.31758C3.12051 7.2147 3.21242 7.00694 3.16566 6.80561C3.11895 6.60435 2.94458 6.45698 2.73611 6.44244C2.12372 6.3999 1.68463 6.16235 1.42612 5.73512C1.44355 5.73548 1.46098 5.7356 1.47844 5.7356C1.61749 5.7356 1.71 5.72537 1.72711 5.72336C1.92682 5.69961 2.08968 5.55425 2.13376 5.36031C2.17782 5.16637 2.09354 4.96611 1.92336 4.86028C1.18605 4.40168 0.96635 3.89078 0.948429 3.46668C2.39222 4.42969 3.9266 4.58061 4.74566 4.58061C5.04807 4.58061 5.246 4.55998 5.29946 4.55366C5.44669 4.53623 5.57723 4.45185 5.65246 4.32557C5.72762 4.19929 5.73875 4.04554 5.6826 3.90992C5.63601 3.79753 5.60235 3.67882 5.58255 3.55721C5.50804 3.0996 5.66723 2.56346 5.98817 2.19119C6.17695 1.97222 6.51111 1.71118 7.03148 1.71118C7.16262 1.71118 7.30112 1.72772 7.44308 1.76033C7.85629 1.85524 8.17442 2.1434 8.3885 2.61684C8.43999 2.73063 8.53519 2.81953 8.65305 2.86393L9.11302 3.03711L8.81511 3.27676C8.69413 3.37403 8.62925 3.52382 8.64145 3.67752C8.76936 5.28716 8.76798 7.29317 7.61189 8.52888C6.89986 9.28992 5.79245 9.67584 4.32037 9.67584Z" fill="white"/>
</svg>
