<svg width="10" height="13" viewBox="0 0 10 13" fill="none" xmlns="http://www.w3.org/2000/svg">
<path fill-rule="evenodd" clip-rule="evenodd" d="M3.17934 12.7936H5.66004C5.91299 12.7936 6.11804 12.591 6.11798 12.3411V8.12587H6.79688C7.25362 8.12587 7.68214 7.94931 8.00356 7.62862C8.32498 7.30794 8.49959 6.88278 8.49511 6.43144C8.48608 5.51506 7.7243 4.76951 6.79688 4.76951H6.11798V3.51826C6.11798 3.29289 6.30359 3.10947 6.53173 3.10947H6.94823C7.81579 3.10947 8.5216 2.41196 8.5216 1.55473C8.5216 0.69745 7.81579 0 6.94823 0H5.92262C4.15741 0 2.7214 1.41905 2.7214 3.1633V4.76945H2.37169C1.43524 4.76945 0.67334 5.52233 0.67334 6.44769C0.67334 7.37306 1.43524 8.12587 2.37169 8.12587H2.7214V12.3411C2.7214 12.591 2.92645 12.7936 3.17934 12.7936ZM5.2021 11.8885H3.6374V7.67318C3.6374 7.42328 3.43235 7.22066 3.1794 7.22066H2.37169C1.94036 7.22066 1.5894 6.87386 1.5894 6.44757C1.5894 6.02129 1.94036 5.67449 2.37169 5.67449H3.1794C3.43235 5.67449 3.6374 5.47187 3.6374 5.22191V3.16318C3.6374 1.91802 4.66253 0.905019 5.92262 0.905019H6.94829C7.31079 0.905019 7.60566 1.19644 7.60566 1.55463C7.60566 1.91288 7.31079 2.20426 6.94829 2.20426H6.53173C5.79853 2.20426 5.20204 2.79369 5.20204 3.5182V5.22197C5.20204 5.47192 5.40709 5.67455 5.66004 5.67455H6.79694C7.22414 5.67455 7.5751 6.01798 7.57923 6.44013C7.58132 6.64807 7.50089 6.84396 7.35283 6.99162C7.20477 7.13935 7.00737 7.22072 6.79694 7.22072H5.66004C5.40715 7.22072 5.2021 7.42334 5.2021 7.6733V11.8885Z" fill="white"/>
</svg>
