<svg width="126" height="61" viewBox="0 0 126 61" fill="none" xmlns="http://www.w3.org/2000/svg">
<g clip-path="url(#clip0)">
<path d="M57.6928 47.8999H66.5056V45.8479H59.9824V33.6439H57.6928V47.8999ZM67.6288 40.7719C67.564 44.8543 70.9768 48.2023 75.1456 48.1375C78.0184 48.1375 80.524 46.6471 81.7984 44.3791V40.3615H75.124V42.3919H79.5088V43.9255C78.6232 45.2863 77.1328 46.0855 75.2536 46.0855C72.1864 46.0855 70.0048 43.7959 70.0048 40.7503C70.0048 37.7479 72.1216 35.5015 75.124 35.5015C76.8952 35.5015 78.3208 36.2575 79.3792 37.7479L81.0424 36.3871C79.6816 34.4863 77.6296 33.4063 75.1456 33.4063C71.02 33.3415 67.5424 36.6895 67.6288 40.7719ZM97.374 33.4063L91.3908 41.3767L85.4076 33.4063H84.6084V47.8999H86.898V38.9359L91.002 44.3143H91.7796L95.862 38.9575V47.8999H98.1516V33.4063H97.374Z" fill="#2F281E"/>
<rect x="109.9" y="36.8999" width="9" height="9" fill="#DA2756"/>
</g>
<circle cx="23.5" cy="36.8999" r="22.5" stroke="#DA2756" stroke-width="1.8"/>
<path d="M2.68175 44.8628H12.25V12.0442" stroke="#DA2756" stroke-width="1.8"/>
<path d="M44.65 44.8628H35.0817V20.4874V12.0442" stroke="#DA2756" stroke-width="1.8"/>
<path d="M23.95 59.8453V0" stroke="#DA2756" stroke-width="1.8"/>
<path d="M29.35 58.9452V5.3999" stroke="#DA2756" stroke-width="1.8"/>
<path d="M17.65 58.9452V5.3999" stroke="#DA2756" stroke-width="1.8"/>
<defs>
<clipPath id="clip0">
<rect width="70" height="21" fill="white" transform="translate(55.9 27.8999)"/>
</clipPath>
</defs>
</svg>
