<svg width="12" height="11" viewBox="0 0 12 11" fill="none" xmlns="http://www.w3.org/2000/svg">
<g opacity="0.62">
<path fill-rule="evenodd" clip-rule="evenodd" d="M8.33935 10.3339C8.51157 10.459 8.71489 10.5251 8.92657 10.5251C9.39659 10.5251 9.80682 10.1958 9.90309 9.74214L11.5565 1.93186C11.6163 1.64703 11.5452 1.35473 11.3604 1.12998C11.1738 0.902936 10.8981 0.772705 10.6051 0.772705C10.4843 0.772705 10.3647 0.795036 10.2505 0.839141L0.567272 4.56785C0.232398 4.6969 0.0254935 5.00979 0.0410412 5.36487C0.055991 5.71988 0.288609 6.01428 0.633649 6.11485L2.58967 6.68561L3.20859 8.97485C3.21039 8.98153 3.21218 8.98814 3.21457 8.99482C3.33298 9.36597 3.67742 9.61533 4.07209 9.61533C4.31069 9.61533 4.53553 9.52315 4.70476 9.35551L5.765 8.35563L8.32858 10.3261L8.33935 10.3339ZM8.92657 9.58644C8.9188 9.58644 8.91162 9.58425 8.90385 9.57923L6.02513 7.36633C5.83915 7.22357 5.57544 7.23669 5.40561 7.39724L4.0984 8.62982L3.43882 6.18901C3.39576 6.03094 3.27318 5.90626 3.11411 5.85993L1.24479 5.3144L10.5956 1.71366C10.5992 1.71211 10.6027 1.71127 10.6051 1.71127C10.6105 1.71127 10.6183 1.71583 10.6231 1.72184C10.6279 1.72737 10.6285 1.73089 10.6267 1.73967L8.97322 9.54998C8.96604 9.58543 8.93076 9.58644 8.92657 9.58644Z" fill="white"/>
<path fill-rule="evenodd" clip-rule="evenodd" d="M4.85156 8.69523C4.86651 8.74292 5.41009 8.07076 5.41607 8.02107L5.17209 6.84037C5.1398 6.68484 5.1972 6.52447 5.32039 6.42301L9.79395 2.74963C9.90159 2.65546 9.77661 2.48946 9.65462 2.56421L4.3941 5.73484C4.26912 5.81006 4.20454 5.95377 4.23264 6.09553L4.85156 8.69523Z" fill="white"/>
<path fill-rule="evenodd" clip-rule="evenodd" d="M8.33935 10.3339C8.51157 10.459 8.71489 10.5251 8.92657 10.5251C9.39659 10.5251 9.80682 10.1958 9.90309 9.74214L11.5565 1.93186C11.6163 1.64703 11.5452 1.35473 11.3604 1.12998C11.1738 0.902936 10.8981 0.772705 10.6051 0.772705C10.4843 0.772705 10.3647 0.795036 10.2505 0.839141L0.567272 4.56785C0.232398 4.6969 0.0254935 5.00979 0.0410412 5.36487C0.055991 5.71988 0.288609 6.01428 0.633649 6.11485L2.58967 6.68561L3.20859 8.97485C3.21039 8.98153 3.21218 8.98814 3.21457 8.99482C3.33298 9.36597 3.67742 9.61533 4.07209 9.61533C4.31069 9.61533 4.53553 9.52315 4.70476 9.35551L5.765 8.35563L8.32858 10.3261L8.33935 10.3339ZM8.92657 9.58644C8.9188 9.58644 8.91162 9.58425 8.90385 9.57923L6.02513 7.36633C5.83915 7.22357 5.57544 7.23669 5.40561 7.39724L4.0984 8.62982L3.43882 6.18901C3.39576 6.03094 3.27318 5.90626 3.11411 5.85993L1.24479 5.3144L10.5956 1.71366C10.5992 1.71211 10.6027 1.71127 10.6051 1.71127C10.6105 1.71127 10.6183 1.71583 10.6231 1.72184C10.6279 1.72737 10.6285 1.73089 10.6267 1.73967L8.97322 9.54998C8.96604 9.58543 8.93076 9.58644 8.92657 9.58644Z" fill="white"/>
<path fill-rule="evenodd" clip-rule="evenodd" d="M4.85156 8.69523C4.86651 8.74292 5.41009 8.07076 5.41607 8.02107L5.17209 6.84037C5.1398 6.68484 5.1972 6.52447 5.32039 6.42301L9.79395 2.74963C9.90159 2.65546 9.77661 2.48946 9.65462 2.56421L4.3941 5.73484C4.26912 5.81006 4.20454 5.95377 4.23264 6.09553L4.85156 8.69523Z" fill="white"/>
</g>
</svg>
