<svg width="14" height="9" viewBox="0 0 14 9" fill="none" xmlns="http://www.w3.org/2000/svg">
<path fill-rule="evenodd" clip-rule="evenodd" d="M10.862 8.37709C11.0662 8.38168 11.5385 8.39228 11.9255 8.39228C12.334 8.39228 12.4637 8.38076 12.5271 8.37219C12.9463 8.31328 13.1149 8.0765 13.1783 7.94077C13.289 7.70523 13.2543 7.41793 13.0844 7.15249C12.8919 6.85267 12.6629 6.55804 12.4027 6.27647C12.205 6.0627 11.9944 5.85946 11.7889 5.66122L11.7844 5.6569C11.6445 5.52206 11.4998 5.38254 11.3628 5.24273L11.3628 5.24267C11.2492 5.12662 11.2373 5.11442 11.3293 4.94923C11.3718 4.87466 11.4083 4.81657 11.4454 4.7667C11.5787 4.58753 11.7127 4.40914 11.849 4.22767L11.8673 4.20338C12.1181 3.86957 12.3771 3.52502 12.6246 3.1794C12.8584 2.85345 13.1161 2.46611 13.2244 1.99204C13.2979 1.67257 13.1413 1.3933 12.8351 1.29684C12.7149 1.25916 12.5785 1.24052 12.4177 1.23987C11.7916 1.2379 11.1649 1.23832 10.5388 1.23987C10.0897 1.24081 9.89178 1.37459 9.72434 1.79084C9.45405 2.46517 9.18376 2.98446 8.87281 3.42504C8.64617 3.74596 8.4584 3.98091 8.26943 4.1791C8.23774 4.02599 8.22279 3.85191 8.22518 3.66105C8.22877 3.36211 8.23894 3.05649 8.2491 2.75702L8.2497 2.74638C8.25062 2.71758 8.25155 2.68864 8.25249 2.65959C8.25824 2.48095 8.26412 2.29818 8.26824 2.11759C8.27123 1.98474 8.26046 1.84536 8.23655 1.70363C8.17555 1.34723 7.94772 1.10127 7.61105 1.02885C7.42567 0.988945 7.22534 0.968518 6.99811 0.966514C6.88277 0.965363 6.76744 0.963235 6.65153 0.961096L6.64769 0.961025C6.47845 0.957822 6.30265 0.95459 6.12684 0.95459C5.93608 0.95459 5.76744 0.958632 5.61257 0.966904C5.30101 0.983349 4.9787 1.03493 4.73113 1.29917C4.61691 1.42132 4.57685 1.59411 4.62528 1.75336C4.67432 1.91258 4.80468 2.03451 4.96793 2.07381C5.15151 2.11783 5.24121 2.18513 5.25557 2.44838C5.28128 2.91479 5.29144 3.2184 5.28247 3.68232C5.28008 3.80612 5.2442 4.0491 5.20115 4.21148C5.14553 4.16758 5.0959 4.1193 5.05703 4.07114C4.54515 3.43798 4.12357 2.70821 3.76777 1.83997C3.61348 1.46488 3.33123 1.26378 2.92759 1.2422L2.91862 1.24178C2.87198 1.24019 2.08442 1.224 1.53667 1.224C1.14678 1.224 1.05768 1.23225 1.02837 1.23502C0.952429 1.2421 0.878877 1.26734 0.814892 1.30851C0.604399 1.44356 0.516495 1.70292 0.586459 1.98535C0.591243 2.00678 0.598419 2.02778 0.606791 2.04822C0.661806 2.18573 1.16173 3.23613 1.18923 3.2909C1.84104 4.58115 2.4199 5.51952 3.06513 6.33343C3.60152 7.00979 4.1756 7.50456 4.82083 7.84604C5.47084 8.19013 6.20756 8.35736 7.07465 8.35736C7.20501 8.35736 7.34195 8.35358 7.48128 8.34607C7.92021 8.32238 8.21143 8.04997 8.24312 7.63615C8.25867 7.49038 8.33402 6.99903 8.398 6.83825C8.41176 6.80463 8.42491 6.78778 8.43149 6.78069C8.44465 6.78318 8.47694 6.79428 8.52059 6.8272C8.59594 6.88381 8.67368 6.95377 8.75799 7.04081C8.84999 7.13615 8.94254 7.23565 9.03246 7.33231L9.04323 7.34389L9.04981 7.35045C9.22502 7.53907 9.40681 7.73407 9.60056 7.91861C9.91271 8.21507 10.311 8.37278 10.7535 8.37479C10.7654 8.37485 10.8013 8.37568 10.8593 8.37703L10.862 8.37709ZM9.09586 6.08035C8.88835 5.92405 8.65693 5.84138 8.42611 5.84138C8.01947 5.84138 7.67922 6.08443 7.51477 6.49209C7.41491 6.74181 7.34554 7.18322 7.31444 7.41409C7.23252 7.41722 7.15179 7.41876 7.07405 7.41876C6.36842 7.41876 5.77761 7.28793 5.26872 7.01865C4.74249 6.73986 4.26589 6.32646 3.81262 5.75464C3.20865 4.99225 2.66148 4.10311 2.03898 2.87218C2.01506 2.82426 1.84762 2.4709 1.70291 2.16309C2.19505 2.16563 2.80859 2.17775 2.88035 2.17976L2.88154 2.17982C2.8822 2.1812 2.88285 2.18263 2.88354 2.18413C2.88473 2.18674 2.88601 2.18954 2.88752 2.19258C3.27801 3.14572 3.74504 3.95189 4.31433 4.65602C4.42496 4.79418 4.56788 4.92406 4.72694 5.03166C4.89079 5.14287 5.07437 5.20161 5.25796 5.20161C5.62811 5.20161 5.93967 4.97458 6.07003 4.61058C6.16152 4.35838 6.2279 3.93576 6.23208 3.69999C6.24165 3.20747 6.23089 2.88767 6.20398 2.39768C6.19381 2.21167 6.15733 2.04284 6.09514 1.89322C6.26357 1.89269 6.43973 1.89592 6.60981 1.89905L6.63034 1.89942C6.74934 1.90166 6.86894 1.90382 6.98914 1.90505C7.10814 1.90608 7.21398 1.91361 7.30966 1.92796C7.31684 1.98648 7.31983 2.04267 7.31863 2.09591C7.31454 2.27181 7.30869 2.45125 7.30296 2.62695C7.302 2.65654 7.30104 2.68602 7.30009 2.71536L7.29949 2.72978C7.28933 3.03031 7.27916 3.34101 7.27558 3.65C7.27259 3.92253 7.2965 4.17668 7.34733 4.40595C7.45258 4.87643 7.79702 5.18045 8.22459 5.18045C8.40159 5.18045 8.6659 5.12585 8.91945 4.8655C9.15625 4.62281 9.38229 4.34408 9.65199 3.96176C9.99942 3.46942 10.2984 2.90161 10.5908 2.17822C11.1087 2.17704 11.6271 2.17651 12.1444 2.17769C12.0577 2.34043 11.9507 2.49524 11.8496 2.63665C11.602 2.98192 11.3401 3.33061 11.0842 3.67074C10.949 3.85067 10.8139 4.0306 10.6793 4.21148C10.6189 4.29356 10.5615 4.38267 10.4993 4.4934C10.2075 5.01482 10.2667 5.47348 10.6805 5.89581C10.827 6.04519 10.9765 6.18919 11.123 6.33018C11.3186 6.51892 11.5207 6.7141 11.7013 6.90933C11.8645 7.0859 12.0129 7.26778 12.1444 7.45214C12.0858 7.45303 12.0134 7.45362 11.9255 7.45362C11.5476 7.45362 11.0806 7.44316 10.8779 7.43861C10.8121 7.43708 10.7696 7.43619 10.7583 7.43613C10.5585 7.43524 10.3953 7.37184 10.2595 7.24231C10.0862 7.07773 9.91472 6.89355 9.74857 6.71514L9.74826 6.71481L9.74228 6.70813C9.64601 6.60466 9.54614 6.49777 9.44448 6.39235C9.32548 6.26908 9.21127 6.16686 9.09586 6.08035Z" fill="white"/>
</svg>
